<?xml version="1.0" encoding="UTF-8" standalone="no"?>
<!-- Created with Inkscape (http://www.inkscape.org/) -->

<svg
   xmlns:dc="http://purl.org/dc/elements/1.1/"
   xmlns:cc="http://creativecommons.org/ns#"
   xmlns:rdf="http://www.w3.org/1999/02/22-rdf-syntax-ns#"
   xmlns:svg="http://www.w3.org/2000/svg"
   xmlns="http://www.w3.org/2000/svg"
   version="1.1"
   width="1000"
   height="571"
   id="svg2">
  <metadata
     id="metadata8">
    <rdf:RDF>
      <cc:Work
         rdf:about="">
        <dc:format>image/svg+xml</dc:format>
        <dc:type
           rdf:resource="http://purl.org/dc/dcmitype/StillImage" />
        <dc:title></dc:title>
      </cc:Work>
    </rdf:RDF>
  </metadata>
  <defs
     id="defs6" />
  <path
     d="m 280.77543,519.4421 c -1.08838,-1.08838 0.43749,-4.26452 2.28026,-4.74641 2.24773,-0.5878 4.3966,1.68327 3.58757,3.79158 -0.55525,1.44696 -4.70108,2.12158 -5.86783,0.95483 z m -6.36641,-8.94858 c -0.36434,-1.45166 -1.69293,-3.03117 -2.95242,-3.51002 -2.07022,-0.7871 -2.27969,-1.47587 -2.18276,-7.17708 0.059,-3.46853 -0.24571,-8.38465 -0.67709,-10.92471 -0.59071,-3.47816 -0.39087,-5.37915 0.80946,-7.70034 2.05536,-3.97463 2.07483,-10.53725 0.0363,-12.2291 -1.95703,-1.6242 -1.59964,-6.42954 0.77736,-10.45227 0.97498,-1.65 1.77714,-3.675 1.78258,-4.5 0.005,-0.825 0.68092,-2.78661 1.50106,-4.35914 1.49353,-2.86369 3.99478,-11.04988 5.39847,-17.66838 0.87626,-4.13165 0.59442,-16.75684 -0.57802,-25.89255 -0.78714,-6.13339 -1.02487,-6.56117 -5.32393,-9.58007 -5.46491,-3.83759 -13.0001,-14.21503 -12.99996,-17.9035 3e-5,-0.603 -1.68747,-2.51339 -3.75,-4.24533 -3.37628,-2.83511 -3.74048,-3.60763 -3.65413,-7.75099 0.0564,-2.70409 0.75845,-5.33412 1.70239,-6.37716 0.88356,-0.97632 1.90277,-3.62812 2.26492,-5.89289 0.45865,-2.86823 1.49679,-4.73757 3.42111,-6.16028 3.02965,-2.23992 3.12463,-4.78356 0.40553,-10.86077 -1.42533,-3.18563 -1.4337,-3.18857 -4.92342,-1.73047 -3.39857,1.42001 -3.57583,1.37858 -6.38163,-1.49171 -1.58727,-1.62376 -3.15569,-2.68254 -3.48538,-2.35286 C 245.26974,332.06359 245,331.62465 245,330.75849 c 0,-0.86616 -2.00292,-2.84198 -4.45092,-4.39071 -2.44801,-1.54872 -4.98917,-3.82159 -5.64703,-5.05081 -1.55843,-2.91195 -8.83477,-6.29619 -13.18556,-6.13263 C 218.06318,315.32168 201,307.73344 201,305.97142 c 0,-0.53428 -0.5625,-0.98103 -1.25,-0.99277 -1.43487,-0.0245 -6.14637,-6.3964 -7.17692,-9.70614 -0.38146,-1.22513 -2.21228,-4.04527 -4.06847,-6.267 -1.8562,-2.22172 -4.12094,-5.71935 -5.03277,-7.7725 -1.88132,-4.23617 -5.88482,-7.67225 -7.99551,-6.8623 -1.22028,0.46826 -1.22254,1.09717 -0.0162,4.5162 1.33452,3.78243 4.26279,9.04056 5.63202,10.11309 1.12602,0.88202 2.07488,5 1.15209,5 -2.108,0 -9.23691,-10.46642 -10.7779,-15.82375 -0.898,-3.12194 -2.80447,-6.91375 -4.23661,-8.42625 -1.43213,-1.5125 -2.22795,-2.75 -1.76848,-2.75 0.75616,0 -1.93644,-2.7294 -7.05247,-7.14887 -2.62065,-2.26384 -5.83008,-6.34095 -6.28768,-7.98759 -0.84857,-3.05345 -1.88536,-17.5403 -1.42776,-19.94972 0.27014,-1.4224 0.0555,-4.16403 -0.47698,-6.0925 -0.71768,-2.59923 -0.5993,-4.38353 0.45761,-6.89717 2.01159,-4.78415 1.16135,-6.82156 -5.104,-12.23067 -5.4585,-4.71253 -6.77887,-6.79372 -10.10604,-15.92929 -0.94863,-2.6047 -2.34108,-5.2473 -3.09434,-5.87244 C 131.6163,184.2666 131,183.35056 131,182.85612 c 0,-0.49445 -1.1848,-2.68935 -2.63289,-4.87756 C 126.36533,174.95366 125.0793,174 123.00197,174 c -1.50274,0 -3.87642,-0.9 -5.27484,-2 -1.39842,-1.1 -3.41696,-2 -4.48564,-2 -2.7047,0 -7.81813,-1.71416 -13.937922,-4.67237 -2.858038,-1.38153 -5.601601,-2.26147 -6.096806,-1.95542 -0.495206,0.30606 -0.941163,1.99106 -0.991016,3.74445 -0.082,2.88403 -1.465409,4.82719 -3.465746,4.86803 -1.188905,0.0243 -0.879572,-2.43033 0.818404,-6.49416 1.942007,-4.64788 0.605402,-6.66434 -2.415223,-3.64371 -3.20471,3.20471 -5.012502,7.43827 -4.444667,10.4087 0.388938,2.0346 0.05034,2.89868 -1.344314,3.43056 -1.02531,0.39102 -4.244211,2.64662 -7.153114,5.01243 C 71.302184,183.06433 68.302184,185 67.54442,185 c -0.757764,0 -1.567228,0.5625 -1.798808,1.25 -0.23158,0.6875 -0.751602,-0.50216 -1.155604,-2.6437 -0.404003,-2.14153 -1.377029,-4.53618 -2.162279,-5.32143 C 61.642478,177.49962 61,175.82054 61,174.55357 61,169.09179 59.693742,165.89299 56.866309,164.43087 55.224841,163.58203 54,162.13019 54,161.03334 c 0,-1.05342 -0.433586,-2.18328 -0.963525,-2.5108 -1.141377,-0.70541 2.396799,-4.51571 4.213525,-4.5376 0.6875,-0.008 3.05,-0.63858 5.25,-1.40066 3.501311,-1.21286 4.037326,-1.8114 4.299392,-4.80087 0.260851,-2.97562 -0.127173,-3.64499 -3.014251,-5.19978 -1.822503,-0.98149 -4.432229,-1.62467 -5.799391,-1.42931 -3.36336,0.48063 -7.27022,-3.10551 -6.823745,-6.26358 0.279526,-1.97717 0.834851,-2.33763 3.210176,-2.08374 1.579699,0.16885 3.996754,1.04385 5.371234,1.94445 2.322587,1.52182 2.586543,1.51779 3.738061,-0.057 C 64.162931,133.7625 65.233376,133 65.860243,133 66.487109,133 67,131.875 67,130.5 c 0,-2 -0.5,-2.5 -2.5,-2.5 -1.375,0 -2.5,-0.42955 -2.5,-0.95455 0,-1.55269 -5.04698,-6.13445 -6.064567,-5.50555 -0.514488,0.31798 -0.941578,-0.0109 -0.949088,-0.73088 -0.0075,-0.71996 -0.271629,-2.27041 -0.586932,-3.44545 -0.476445,-1.77557 0.232023,-2.53566 4.194347,-4.5 2.622194,-1.29996 5.442691,-3.53251 6.26777,-4.96122 0.82508,-1.42871 3.456444,-3.63547 5.847476,-4.90391 3.774511,-2.00237 4.664138,-2.1367 6.751701,-1.01947 1.322405,0.70773 3.173136,0.99178 4.112737,0.63122 0.939601,-0.36056 2.738279,0.0193 3.997061,0.84405 1.258782,0.82479 4.232875,1.77326 6.609095,2.10773 2.37622,0.33446 5.8954,1.16698 7.8204,1.85002 1.925,0.68305 5.24769,1.08246 7.38375,0.88758 2.5197,-0.22988 4.80261,0.25618 6.5,1.38394 1.43894,0.95604 3.29125,1.84393 4.11625,1.97309 0.825,0.12916 2.49092,1.38426 3.70203,2.78912 2.90357,3.36804 5.45201,3.22529 8.51931,-0.4772 2.77247,-3.3466 7.81808,-5.24772 11.48498,-4.32738 2.1308,0.5348 2.32588,0.32072 1.89136,-2.07552 -0.32951,-1.81715 0.01,-2.86139 1.05984,-3.26444 1.77809,-0.68232 3.13794,1.00769 3.99877,4.96963 0.73125,3.36553 1.79344,4.13651 3.99868,2.9024 1.64839,-0.92249 6.22238,0.35792 10.84503,3.03586 1.1,0.63724 3.575,1.41945 5.5,1.73824 2.67034,0.44222 3.57742,1.12255 3.82661,2.87003 0.20158,1.41359 1.35005,2.65524 3,3.24339 1.47037,0.52413 3.86782,1.62489 5.32768,2.44612 4.01955,2.26116 5.45888,1.85723 8.97567,-2.51894 2.96695,-3.69198 3.50928,-3.96083 6.79712,-3.36961 1.96511,0.35336 4.11383,1.07098 4.77493,1.59471 0.66111,0.52372 2.05038,0.68297 3.08727,0.35387 1.15539,-0.36671 3.30605,0.36583 5.55525,1.89218 3.55877,2.41504 3.70615,2.43264 4.8627,0.58073 0.86124,-1.37907 1.92978,-1.76239 3.84506,-1.37933 3.42709,0.68542 6.94771,-3.49228 6.94771,-8.24443 0,-2.61255 -0.74102,-3.87945 -3.5,-5.98383 -3.61945,-2.76069 -4.69277,-6.83943 -2.40248,-9.129721 1.94304,-1.943036 6.59407,1.555001 6.69298,5.033781 0.0464,1.63261 0.49733,3.23734 1.00204,3.56606 0.5047,0.32873 1.45853,2.25725 2.11961,4.28561 0.81121,2.48895 1.88758,3.78938 3.31082,4 1.36681,0.20226 2.50275,1.48735 3.22833,3.65222 1.77492,5.29569 4.1946,5.99326 7.65337,2.2064 1.59243,-1.74349 2.89533,-3.96721 2.89533,-4.9416 0,-2.41873 0.75458,-2.98189 3.15453,-2.35429 1.63354,0.42718 1.92665,1.09345 1.47485,3.35246 -0.31013,1.55064 -0.13489,3.08446 0.38941,3.40849 1.02459,0.63323 0.81088,3.99205 -0.32635,5.12929 C 251.3116,127.02174 251,128.38333 251,129.66667 251,131.55328 250.46612,132 248.21144,132 c -1.53371,0 -4.57121,0.91519 -6.75,2.03376 -2.17879,1.11857 -4.86518,1.8123 -5.96975,1.54161 -2.55889,-0.62708 -5.3562,0.97822 -3.98333,2.28592 0.5454,0.51952 1.85435,1.10076 2.90877,1.29165 1.05443,0.19088 2.08966,0.86526 2.30052,1.49862 0.42428,1.27436 -5.04489,4.34844 -7.73643,4.34844 -4.89563,0 -9.40822,7.41404 -10.4897,17.23424 -0.34732,3.15383 -1.05,5.99289 -1.56151,6.30901 -1.18299,0.73114 -1.17253,3.52496 0.0203,5.41054 0.78035,1.23358 1.29795,1.25132 3.41722,0.11712 3.76941,-2.01733 5.6325,-0.78319 5.6325,3.73104 0,4.48691 0.76519,5.63781 2.6876,4.04235 2.11913,-1.75872 6.01694,0.5128 7.67039,4.47007 1.23259,2.95 1.98692,3.46106 5.90029,3.99744 6.91437,0.94772 10.00086,2.66046 9.24305,5.1291 -0.34765,1.1325 -0.8269,2.73409 -1.065,3.55909 -0.25516,0.88411 1.10414,2.65607 3.31057,4.3156 l 3.74349,2.81561 2.25481,-2.62137 c 1.60827,-1.86974 2.2548,-3.89567 2.2548,-7.0656 0,-2.44433 0.0399,-4.55674 0.0886,-4.69424 1.30546,-3.68532 1.43442,-9.68464 0.28992,-13.48753 -1.08036,-3.58975 -1.15161,-6.01932 -0.32773,-11.17476 1.78642,-11.17852 1.80448,-11.22835 3.72383,-10.27247 0.94898,0.47261 4.31292,1.41479 7.47542,2.09374 3.53794,0.75955 5.75,1.75186 5.75,2.5794 0,0.73973 0.47903,1.50463 1.06451,1.69979 0.58548,0.19516 1.31856,2.24894 1.62907,4.56395 0.49317,3.67691 1.119,4.53404 4.94949,6.77886 4.821,2.82529 6.35693,2.57619 6.35693,-1.03098 0,-3.25856 1.65013,-4.03012 2.38208,-1.1138 0.32749,1.3048 2.40049,5.34356 4.60667,8.97502 2.20619,3.63145 4.01125,6.86791 4.01125,7.19214 0,0.9299 2.30987,2.80926 5.53569,4.50395 2.6273,1.38026 2.95871,2.0662 2.91504,6.03338 -0.069,6.26992 -4.16418,10.90931 -9.6296,10.90931 -2.11655,0 -4.67424,-0.51583 -5.68377,-1.14629 C 293.33609,206.47978 285,211.13492 285,215.6316 c 0,1.49212 0.42262,2.22524 1.05684,1.83327 0.58125,-0.35923 2.06265,-0.40071 3.29199,-0.0922 1.61617,0.40563 2.22353,1.28441 2.19317,3.17324 -0.0346,2.15002 0.6437,2.85043 3.83321,3.95836 5.70056,1.98018 6.20882,2.86677 3.67965,6.41866 -1.41836,1.99189 -3.04868,3.07704 -4.62295,3.07704 -2.81582,0 -3.00535,-0.73628 -0.94628,-3.67602 1.32181,-1.88716 1.31345,-2.1871 -0.0758,-2.72022 -2.67987,-1.02836 -10.18298,4.11869 -18.0598,12.38882 -2.54613,2.67327 -5.09013,4.69372 -6.67639,5.30243 -0.98344,0.37738 -1.69994,1.78922 -1.73745,3.42361 -0.18128,7.89849 -0.6965,9.18013 -5.4176,13.47672 -6.46881,5.88714 -7.82294,8.80357 -7.07212,15.23149 0.39921,3.41777 0.14146,6.32365 -0.7487,8.44071 -1.34423,3.19698 -1.37951,3.21073 -3.60875,1.40561 -2.02711,-1.64146 -2.12437,-2.10138 -0.97697,-4.61966 0.77575,-1.7026 0.90529,-3.06211 0.33112,-3.4751 -0.51873,-0.37312 -1.43871,-1.57839 -2.04442,-2.67839 -1.57973,-2.86891 -7.9425,-3.26414 -10.76278,-0.66854 -1.78961,1.64704 -3.30215,1.91653 -9.32841,1.66202 -8.41325,-0.35533 -12.74725,1.41635 -15.49451,6.33394 -3.14645,5.63215 -1.03143,18.77969 3.19902,19.88598 1.09338,0.28592 1.98796,0.89623 1.98796,1.35623 0,1.01922 5.74667,2.69227 8.50267,2.47542 1.09853,-0.0864 3.88386,-1.41204 6.18961,-2.94579 2.30576,-1.53375 4.66826,-2.49447 5.25,-2.13493 1.5435,0.95394 1.29247,4.09596 -0.44228,5.53567 -3.58157,2.97244 -0.96137,7 4.55398,7 5.28227,0 9.261,3.87341 8.64837,8.41945 -0.24978,1.85346 -0.72438,3.80717 -1.05466,4.34159 -1.05842,1.71255 2.99227,4.48801 5.42379,3.71627 1.21814,-0.38662 3.87901,-0.15371 5.91304,0.51758 3.1079,1.0257 4.19291,0.96472 6.79729,-0.38206 1.70449,-0.88143 3.89789,-2.95489 4.87424,-4.60771 0.97634,-1.65282 2.12532,-3.00512 2.55328,-3.00512 1.12035,0 0.41795,3.53925 -1.0545,5.31344 -0.85433,1.02941 -0.91609,1.71608 -0.19444,2.16208 1.43421,0.88639 5.28319,-0.42637 6.62321,-2.25896 0.858,-1.17339 2.14138,-1.32554 6.00384,-0.71179 2.70191,0.42934 6.7287,0.68835 8.94842,0.57557 4.58477,-0.23295 8.56663,2.28339 10.97116,6.93323 1.13209,2.18923 2.78287,3.21552 7.23002,4.49491 6.69545,1.9262 10.765,5.31168 13.39712,11.14515 1.25984,2.79212 2.80504,4.47812 4.71404,5.14361 1.56192,0.54449 4.4608,2.41318 6.44195,4.15265 3.43857,3.01911 3.78173,3.10886 7.55951,1.97701 5.5952,-1.67637 10.37315,-0.5149 13.52306,3.28731 1.44501,1.74424 2.62728,3.61809 2.62728,4.16412 0,0.54602 0.97887,2.03472 2.17526,3.30822 2.08781,2.22238 2.11485,2.50636 0.6728,7.06445 -1.26041,3.98391 -1.8674,4.70798 -3.76768,4.49441 -1.55372,-0.17462 -2.42988,0.37506 -2.78943,1.75 -0.28832,1.10253 -0.99673,2.00459 -1.57425,2.00459 -0.57752,0 -0.76798,0.28205 -0.42325,0.62678 0.34473,0.34474 -0.11451,2.03224 -1.02054,3.75 -0.90604,1.71777 -1.97631,5.81481 -2.37839,9.10454 -0.81117,6.6366 -3.92139,10.51871 -8.42726,10.51871 -1.49765,0 -3.06447,0.98179 -4.10766,2.57389 -1.08571,1.657 -2.32417,2.40714 -3.47658,2.10578 -3.70974,-0.97012 -4.65434,0.96433 -7.32726,15.00543 -0.59012,3.09997 -2.4465,6.3149 -3.64639,6.3149 -0.56113,0 -1.9553,2.25 -3.09814,5 -1.14285,2.75 -2.6747,5 -3.40412,5 -0.72941,0 -2.48065,-1.2375 -3.89164,-2.75 -2.16861,-2.32463 -2.71789,-2.51798 -3.55108,-1.25 -0.54211,0.825 -0.76666,3.075 -0.49901,5 0.30476,2.19185 -0.16198,4.80815 -1.24878,7 -1.40466,2.83292 -2.30541,3.5 -4.72602,3.5 -3.16628,0 -4.71651,0.97939 -5.71062,3.60781 -0.33445,0.8843 -2.04802,1.8958 -3.80792,2.24778 -3.17177,0.63435 -3.19382,0.67998 -2.51531,5.20461 0.7908,5.27346 -0.125,6.85651 -5.19103,8.97324 -3.12494,1.30568 -3.34244,1.677 -2.74838,4.69222 0.35481,1.80089 0.88378,4.506 1.17548,6.01136 0.35678,1.84124 -0.36701,4.4532 -2.21155,7.98081 -1.50805,2.88408 -3.26483,7.04993 -3.90396,9.25745 -1.39915,4.83252 -4.18857,5.9218 -5.1683,2.01824 z M 228.50142,238 c 0.18582,0 1.08518,-2.25 1.99858,-5 0.9134,-2.75 1.98457,-5 2.38037,-5 1.47633,0 3.11963,2.47577 3.11963,4.7 0,1.265 0.47958,2.3 1.06574,2.3 1.99484,0 4.93426,-2.06582 4.93426,-3.4678 0,-0.76858 0.9,-1.68307 2,-2.0322 3.56501,-1.13149 2.13061,-3.32923 -3.95554,-6.06053 -4.32269,-1.93991 -6.1958,-3.3935 -6.83189,-5.30175 -0.70674,-2.12024 -1.53789,-2.64949 -4.29446,-2.73455 -1.87996,-0.058 -4.57156,-0.42515 -5.98134,-0.81586 -3.44856,-0.95574 -8.14089,2.5562 -6.13501,4.59171 0.71597,0.72654 2.96597,1.32098 5,1.32098 3.03965,0 3.75357,0.38863 4.00892,2.18232 0.17088,1.20027 -0.39162,3.54042 -1.25,5.20034 -0.85837,1.65991 -1.56068,3.96995 -1.56068,5.13342 0,3.26105 1.94565,6.21875 3.65848,5.56148 C 227.48628,238.2599 228.31561,238 228.50142,238 z m -21.93314,-34.86953 c -0.36569,-2.54676 -0.75565,-5.84575 -0.86658,-7.33109 -0.30912,-4.13897 -1.95904,-5.26446 -5.34116,-3.64345 -3.47754,1.66674 -4.22531,4.38466 -1.40896,5.12116 1.97599,0.51673 2.60834,2.57906 2.18912,7.13957 -0.0969,1.05417 0.82038,2.97746 2.03839,4.27398 1.97454,2.1018 2.31427,2.17916 3.13432,0.7138 0.50586,-0.90392 0.62055,-3.72721 0.25487,-6.27397 z m -31.04995,-32.24038 c 7.39439,-6.10041 7.93933,-7.31865 3.73167,-8.34231 -1.5125,-0.36797 -3.47575,-1.60647 -4.36279,-2.75223 -2.55259,-3.29712 -4.21729,-1.36294 -3.51377,4.08258 0.6405,4.95782 0.13118,6.39709 -2.62344,7.41343 -2.28212,0.842 -2.26796,3.70844 0.0183,3.70844 0.97258,0 4.01008,-1.84946 6.75,-4.10991 z M 159.31574,145.8503 c 1.20134,-0.63234 2.52176,-1.64484 2.93426,-2.25 0.51691,-0.75835 1.04784,-0.63672 1.70836,0.39134 1.1013,1.71412 2.51231,0.709 4.43249,-3.15746 0.63757,-1.2838 2.16045,-2.47798 3.38418,-2.65373 1.36172,-0.19557 2.22497,-1.02103 2.22497,-2.12756 0,-2.33072 -1.65759,-3.65509 -5.96752,-4.7679 -2.84609,-0.73484 -4.27981,-0.46661 -8,1.49672 -8.12709,4.28907 -11.12569,8.59514 -5.68697,8.16665 3.67697,-0.28969 3.93244,-0.0215 2.32155,2.43702 -2.21574,3.38165 -1.08759,4.43153 2.64868,2.46492 z m 733.45862,361.92972 c -2.55011,-3.14287 -0.97562,-5.8919 7.46286,-13.03002 3.20069,-2.70747 5.50143,-2.27092 5.27022,1 -0.28922,4.09148 -0.44634,4.64443 -1.12649,3.96429 -0.34047,-0.34048 -1.27262,0.0345 -2.07143,0.83333 -0.79881,0.79881 -2.34679,1.45238 -3.43997,1.45238 -1.09317,0 -1.72226,0.42931 -1.39797,0.95401 0.8546,1.38278 -0.44356,5.82126 -1.86177,6.36548 -0.66533,0.25531 -1.94128,-0.43745 -2.83545,-1.53947 z m 8.71856,-8.76857 c 0.35034,-0.56686 -0.0511,-0.7345 -0.94098,-0.39301 -1.73242,0.66479 -2.04939,1.38156 -0.61096,1.38156 0.51754,0 1.21592,-0.44485 1.55194,-0.98855 z m -68.63553,-4.40781 c -1.71134,-0.86233 -2.26208,-1.86146 -2.00961,-3.64575 0.19128,-1.35184 0.41628,-2.52761 0.5,-2.61282 0.32231,-0.32805 3.25387,-0.57682 5.46259,-0.46355 2.03252,0.10423 2.27304,0.55866 2,3.77874 -0.34501,4.06883 -2.04821,4.91096 -5.95298,2.94338 z m 78.34866,-10.22815 C 910.49935,483.61897 910.21899,483 910.58302,483 c 0.36403,0 0.13492,-0.63494 -0.50913,-1.41097 -0.83855,-1.01038 -0.86018,-1.60308 -0.0762,-2.0876 0.60214,-0.37214 0.88978,-1.97744 0.63922,-3.56733 -0.45351,-2.87756 -0.44478,-2.88285 1.92233,-1.1624 1.30786,0.95056 2.39206,2.47367 2.40935,3.38468 0.022,1.15878 0.63224,1.49926 2.03142,1.13337 2.65144,-0.69337 2.54552,1.16473 -0.22428,3.93453 -2.70346,2.70346 -3.89047,2.9488 -5.56967,1.15121 z M 831,476.42479 c -2.5782,-0.89421 -3.85938,-0.92104 -4.86454,-0.10185 -1.40246,1.14297 -2.79674,-0.0974 -7.54044,-6.70795 -1.04773,-1.46007 -2.97944,-2.92435 -4.29267,-3.25395 -1.40368,-0.35231 -2.32266,-1.2714 -2.22987,-2.23016 C 812.69565,457.69166 810.43482,456.1537 806,460 c -2.96489,2.57143 -3.8522,2.51894 -4.92058,-0.2911 -1.48231,-3.89878 -3.95821,-5.17761 -9.96303,-5.14601 -3.98561,0.021 -7.42618,0.85205 -11.84926,2.86221 -5.16502,2.34735 -7.13526,2.74162 -11.5,2.30129 -2.89692,-0.29225 -7.16517,-0.0358 -9.48499,0.56993 -2.31982,0.60572 -4.51955,0.7996 -4.88828,0.43087 -0.36874,-0.36874 -0.80157,-2.51147 -0.96184,-4.76163 -0.16027,-2.25016 -0.80859,-4.71437 -1.4407,-5.47602 -0.63211,-0.76164 -1.37733,-2.87087 -1.65604,-4.68717 -0.27871,-1.81631 -1.30722,-4.20237 -2.28558,-5.30237 -1.35775,-1.52656 -1.58259,-2.69606 -0.94983,-4.94039 0.52077,-1.84713 0.42882,-3.42258 -0.24731,-4.23727 -0.60146,-0.72471 -0.73632,-2.07456 -0.30568,-3.05961 0.42385,-0.9695 0.70248,-2.09037 0.61918,-2.49083 -0.23967,-1.15215 5.35491,-3.70827 9.52744,-4.353 9.36116,-1.44647 10.67427,-1.97395 12.32349,-4.95038 0.90466,-1.63269 2.4392,-3.12235 3.41008,-3.31036 0.97089,-0.18802 3.02133,-1.74765 4.55654,-3.46585 2.32413,-2.60115 3.04411,-2.91419 4.30182,-1.87039 3.20689,2.66148 5.52959,2.13144 10.41865,-2.37752 2.63775,-2.43269 5.58342,-4.42787 6.54592,-4.43373 0.9625,-0.006 1.75,-0.42085 1.75,-0.92219 0,-0.98225 1.18722,-0.90713 4.79161,0.3032 2.01522,0.6767 2.25644,1.33269 2,5.43891 -0.29002,4.64397 -0.26709,4.68092 4.20839,6.78268 7.55332,3.54715 9.91063,3.79843 10.89714,1.16156 0.46809,-1.25115 0.4714,-2.51794 0.007,-2.81507 -1.10865,-0.70987 0.38503,-6.22293 1.81517,-6.69965 0.61084,-0.20361 1.40042,0.54288 1.75462,1.65886 0.3542,1.11599 2.07989,3.03158 3.83486,4.25687 4.13885,2.88967 4.65715,3.70833 4.67555,7.385 0.0116,2.32607 1.07787,4.04415 4.44162,7.15703 2.43446,2.2529 4.63262,3.88987 4.88478,3.63771 0.64522,-0.64522 6.68891,6.84416 6.68891,8.28893 0,0.65385 0.52042,1.3623 1.15649,1.57432 1.68201,0.56067 2.57399,8.63091 1.46792,13.28117 -0.52327,2.2 -2.00282,5.56696 -3.2879,7.48213 -1.28508,1.91518 -2.33651,4.51273 -2.33651,5.77235 0,2.26796 -6.86405,10.64651 -9.93735,12.12996 -0.85946,0.41485 -3.13765,0.20801 -5.06265,-0.45965 z M 502.90359,452.38383 C 501.02102,450.11547 497.98532,441.6457 496.31453,434 c -0.30047,-1.375 -1.10001,-2.95 -1.77675,-3.5 -2.0694,-1.68185 -4.23309,-6.77179 -4.81527,-11.32762 -0.30416,-2.38018 -1.23601,-5.08231 -2.07078,-6.00473 -2.67153,-2.952 -3.03307,-10.90634 -0.85141,-18.7321 1.70595,-6.11933 1.79564,-7.52406 0.67047,-10.5 -0.71442,-1.88955 -2.48357,-6.55127 -3.93145,-10.35937 -1.44788,-3.8081 -3.3576,-7.45402 -4.24384,-8.10206 -1.31409,-0.96088 -1.49227,-2.31745 -0.96588,-7.35367 l 0.64546,-6.17543 -2.91828,-0.58366 c -1.60506,-0.32101 -3.83063,-1.43364 -4.94573,-2.47251 C 469.99598,347.84998 468.66296,347 468.1488,347 c -0.51415,0 -1.19384,-0.675 -1.51043,-1.5 -0.75323,-1.96289 -5.58224,-1.92805 -8.42166,0.0608 -2.37157,1.66112 -6.9121,1.38906 -12.91731,-0.77398 -2.43348,-0.87652 -3.82291,-0.86928 -5.79705,0.0302 -5.04217,2.29736 -8.24269,1.49531 -12.99441,-3.25641 -2.44169,-2.44169 -4.70126,-5.47919 -5.02126,-6.75 -0.32001,-1.27081 -2.12118,-3.31787 -4.0026,-4.54901 -4.97987,-3.25867 -6.4367,-6.68208 -5.43069,-12.76156 0.45506,-2.75 0.85421,-7.60985 0.887,-10.79966 0.069,-6.71477 1.76173,-10.59843 7.06099,-16.20034 2.08114,-2.2 4.08753,-5.0125 4.45864,-6.25 0.37112,-1.2375 1.08286,-2.25 1.58164,-2.25 1.94977,0 7.2014,-6.77394 9.30323,-12 2.38229,-5.92339 2.097,-5.80289 10.48048,-4.42655 3.45497,0.56721 5.08585,0.2827 8.10441,-1.41383 3.08705,-1.73502 5.75245,-2.17298 14.55605,-2.39178 10.19574,-0.25339 10.81962,-0.15325 11.56697,1.85675 0.49499,1.33126 0.25922,3.14761 -0.63142,4.86431 -2.16272,4.16865 -1.85207,4.5111 4.09219,4.5111 3.03246,0 6.29496,0.38459 7.25,0.85465 0.95504,0.47006 3.85939,1.53407 6.45411,2.36446 4.41603,1.41325 4.82557,1.39058 6.40499,-0.35466 1.86983,-2.06614 3.53462,-2.32328 6.1409,-0.94852 4.81223,2.53836 9.30322,4.05229 13.30512,4.48521 2.43722,0.26366 5.67234,0.7844 7.18915,1.1572 1.5168,0.37279 3.99823,0.16402 5.51428,-0.46395 4.6393,-1.92166 8.88672,-12.19838 6.46257,-15.63633 -1.25558,-1.78066 -8.50015,-3.47384 -13.73469,-3.21004 -4.87983,0.24592 -5.00814,0.17988 -5.33849,-2.74802 -0.18616,-1.65 -0.75643,-3.50546 -1.26725,-4.12325 -1.79325,-2.16876 0.21642,-3.95682 7.62739,-6.78632 6.96935,-2.66088 7.83633,-2.77422 12.72855,-1.66389 9.47041,2.14938 10.69638,2.30368 13.237,1.66603 3.88738,-0.97567 3.10025,-4.04176 -2.4872,-9.68831 -2.75,-2.77909 -5,-5.87131 -5,-6.87159 C 548,229.22843 546.14408,228 543.41821,228 542.50195,228 542,229.0864 542,231.06955 c 0,2.61125 -0.33594,3.02184 -2.25,2.75 -1.46678,-0.20831 -2.36402,-1.12406 -2.57756,-2.6307 -0.18016,-1.27113 -0.97114,-2.55811 -1.75772,-2.85995 -2.16466,-0.83066 -6.08085,2.2047 -6.86247,5.31896 -0.38137,1.51949 -1.56164,3.37084 -2.62282,4.11413 C 524.77662,238.56945 524,240.28244 524,242.01775 524,245.62194 520.57389,249 516.91843,249 514.07699,249 513,250.51795 513,254.52277 c 0,3.51981 -1.47561,3.78935 -4.91256,0.89735 -2.03382,-1.71135 -3.61077,-4.41251 -4.63707,-7.94284 -1.39271,-4.79075 -2.0252,-5.57714 -6.05461,-7.52774 -2.47469,-1.19798 -5.20287,-3.25171 -6.06261,-4.56384 C 489.35559,232.36757 486,232.18506 486,235.09563 c 0,3.34191 3.59908,7.49566 8.48448,9.79207 4.82991,2.27033 5.36464,3.1627 3.04749,5.08577 -0.80742,0.67009 -1.42913,1.51269 -1.38158,1.87244 0.50412,3.8142 -2.62814,4.37105 -3.56608,0.63398 -0.34788,-1.38606 -1.63416,-3.70497 -2.85841,-5.15312 C 487.11222,244.23506 477.82783,235 477.33328,235 c -0.18729,0 -2.01973,0.9 -4.0721,2 -2.05236,1.1 -5.17521,2 -6.93967,2 -3.22868,0 -6.32151,2.83471 -6.32151,5.79393 0,1.33489 -2.43037,4.31071 -3.46429,4.24178 -0.29464,-0.0196 -0.97656,-0.0357 -1.51539,-0.0357 -0.53882,0 -1.94927,1.9125 -3.13433,4.25 -2.25436,4.44666 -3.74877,5.95284 -5.08619,5.12627 -0.43763,-0.27047 -2.06947,0.26067 -3.62631,1.18032 -2.62112,1.54833 -3.06313,1.55184 -5.97241,0.0474 -3.82767,-1.97936 -5.10223,-4.18139 -5.02312,-8.67828 0.0331,-1.88414 -0.14715,-4.57838 -0.40065,-5.98722 -0.2535,-1.40883 -0.075,-3.60464 0.3966,-4.87956 0.77509,-2.09528 1.26441,-2.25073 5.09179,-1.61761 11.07239,1.8316 10.54903,1.97699 11.31694,-3.14383 0.79748,-5.318 -1.10832,-9.59211 -4.51115,-10.11703 C 442.93217,225.0047 442,224.28605 442,223.58346 442,221.60914 445.53332,218 447.46617,218 c 3.68695,0 8.59604,-3.44486 18.37435,-12.89385 C 475.48185,195.78952 476,195.07905 476,191.1758 c 0,-5.83378 2.56427,-4.51814 3.39467,1.74168 l 0.63623,4.7962 6.56561,0.6131 c 5.09918,0.47617 7.10848,0.2574 8.99623,-0.9795 1.55393,-1.01818 3.49448,-1.37984 5.38017,-1.0027 3.36485,0.67297 4.05186,-0.0455 5.58663,-5.84254 1.03504,-3.90947 1.16226,-4.00204 5.5,-4.00204 4.34392,0 4.44767,-0.076 4.77216,-3.49599 0.42557,-4.48523 1.51997,-5.72948 6.2988,-7.16126 5.65942,-1.6956 6.88559,-3.56771 3.84092,-5.86431 -3.38665,-2.55455 -6.83566,-3.01537 -11.23204,-1.50069 -4.58681,1.58028 -4.9856,1.0942 -5.40444,-6.58739 -0.26159,-4.79765 0.1761,-6.65877 2.68974,-11.43728 3.60273,-6.84891 4.28834,-11.70726 1.72691,-12.23731 -2.678,-0.55417 -7.6168,5.57527 -6.26051,7.76979 0.58845,0.95214 -7.04425,9.01444 -8.53411,9.01444 -1.00225,0 -2.98322,5.97477 -2.6547,8.00678 0.13399,0.82873 1.02079,2.61636 1.97067,3.97251 1.86546,2.66331 2.31387,7.54001 0.78045,8.48772 -0.52064,0.32177 -2.42451,3.27332 -4.23083,6.55901 C 494.01625,185.31171 492.03697,188 491.42416,188 489.77111,188 487,184.60235 487,182.57555 487,180.13465 483.83748,175 482.33408,175 c -0.67908,0 -1.59456,0.5625 -2.03439,1.25 -0.43983,0.6875 -1.56583,1.84987 -2.50222,2.58304 -1.47849,1.15764 -2.10352,0.92283 -4.75,-1.78447 C 471.37136,175.33393 470,172.91156 470,171.66552 c 0,-1.24604 -0.52201,-2.78753 -1.16002,-3.42554 -0.63817,-0.63817 -1.07726,-3.49803 -0.97606,-6.35725 0.19801,-5.59446 0.81661,-6.42572 7.3865,-9.92579 3.72554,-1.98476 7.73484,-7.16906 9.24695,-11.95694 0.43425,-1.375 1.62499,-3.08802 2.64609,-3.8067 1.0211,-0.71869 1.85654,-2.15783 1.85654,-3.19809 0,-1.04026 2.15686,-4.50224 4.79303,-7.69329 2.63617,-3.19106 5.5794,-7.48334 6.54051,-9.53842 1.90536,-4.07407 4.93447,-6.25837 7.37839,-5.32055 0.8556,0.32833 3.85794,-0.6822 6.67186,-2.24561 3.8462,-2.13694 6.54355,-2.86753 10.86621,-2.94315 6.50979,-0.11389 7.44732,1.31019 3.57569,5.43136 L 526.65137,113 l 3.60174,0 c 2.65078,0 4.12094,0.66006 5.56823,2.5 1.38293,1.7581 2.93908,2.5 5.24384,2.5 1.80254,0 4.13078,0.77235 5.17387,1.71634 1.04309,0.94398 3.49239,2.63148 5.44289,3.75 2.39789,1.37507 3.95932,3.25482 4.82153,5.80448 1.16331,3.44004 1.09936,3.89396 -0.72895,5.17456 -1.10227,0.77206 -2.67288,1.14712 -3.49025,0.83346 -0.81736,-0.31365 -1.84153,0.005 -2.27591,0.70763 -1.10002,1.77987 -6.49425,-0.65734 -8.10143,-3.66036 -1.03398,-1.93203 -3.98789,-3.29182 -7.40693,-3.40967 -0.55,-0.019 -1.25265,1.00458 -1.56145,2.27454 -0.43054,1.77064 0.15237,2.84309 2.5,4.59958 3.36725,2.51936 4.38507,4.39698 4.49116,8.28513 0.076,2.78435 3.64153,6.59645 6.07029,6.49003 0.825,-0.0361 1.64698,-1.10247 1.82661,-2.3696 0.19782,-1.39541 1.36501,-2.69867 2.95998,-3.30508 1.44835,-0.55066 3.77638,-2.27457 5.17339,-3.8309 2.28933,-2.55041 5.31217,-3.53654 12.29002,-4.00932 1.45666,-0.0987 0.72461,-2.76382 -1.25,-4.55082 -2.40302,-2.1747 -2.56493,-4.79221 -0.42857,-6.92857 C 568.89081,123.25205 570,123.64951 570,126.8 c 0,5.67367 5.37517,7.16452 8.16308,2.26409 C 580.42704,125.08463 593,119.04134 593,121.93261 c 0,2.19263 4.21069,2.21808 6.52971,0.0395 1.6785,-1.57687 3.06533,-2.03956 4.80469,-1.60301 1.8946,0.47552 3.14834,-0.10557 5.56836,-2.58082 2.9989,-3.06735 3.2885,-3.15039 7.27552,-2.0862 2.28376,0.60957 4.70857,0.89485 5.38847,0.63395 1.58298,-0.60744 2.40237,-3.70666 2.4196,-9.15175 0.008,-2.37366 0.46487,-5.15885 1.01635,-6.18931 0.68809,-1.285712 0.66203,-2.084127 -0.0831,-2.544628 -0.64652,-0.399568 0.16152,-1.42959 1.9973,-2.54599 1.69571,-1.031234 3.0831,-2.331569 3.0831,-2.889654 0,-1.602344 5.61707,-1.181028 7.03517,0.527684 0.96957,1.168259 0.99927,1.823175 0.12245,2.7 -1.67207,1.672067 -1.41095,9.751228 0.42849,13.257618 2.35756,4.49408 2.53832,12.66984 0.40343,18.24781 -1.65231,4.31712 -2.08684,4.72538 -4.74621,4.45938 -4.51391,-0.45151 -5.99113,2.00145 -3.87619,6.43653 1.29428,2.71413 2.09601,3.37863 3.41231,2.82826 0.9463,-0.39567 3.07055,-1.01488 4.72055,-1.37602 3.65559,-0.80012 9.5,-8.89735 9.5,-13.16192 0,-3.52961 1.9327,-7.93404 3.48152,-7.93404 0.74692,0 1.22634,2.3898 1.34526,6.70577 0.10162,3.68817 0.6059,7.12691 1.12063,7.64164 1.28238,1.28238 8.05259,-2.02135 8.05259,-3.92951 0,-0.81855 -0.67648,-2.5207 -1.50328,-3.78256 -0.82681,-1.26187 -1.68106,-4.13999 -1.89834,-6.39583 -0.50801,-5.27413 -1.17006,-6.25256 -4.06844,-6.01268 -3.10214,0.25674 -7.34125,-2.05696 -8.08979,-4.41541 -1.67837,-5.28807 -2.05632,-14.887959 -0.68278,-17.342348 0.88882,-1.588229 1.13035,-1.482192 2.36624,1.038837 0.75702,1.544185 2.05139,3.108424 2.87639,3.476086 8.82285,3.931913 9.49863,4.617715 9.5314,9.672835 0.0415,6.39604 0.82253,7.59466 4.00431,6.14495 1.94798,-0.88756 2.46715,-1.87487 2.47794,-4.7123 0.008,-1.97421 0.25769,-4.49753 0.55594,-5.60737 0.3803,-1.41516 -0.64635,-3.344363 -3.43712,-6.458749 -3.14983,-3.515086 -3.77956,-4.814268 -3.02075,-6.232107 0.52725,-0.98519 1.28031,-1.824694 1.67346,-1.865564 4.76088,-0.494926 7.56664,-2.319149 7.68871,-4.998959 0.0144,-0.315298 1.15111,-2.228032 2.52611,-4.25052 1.59148,-2.340913 3.03403,-3.476152 3.96952,-3.123879 0.80823,0.304356 1.19524,0.279091 0.86,-0.05614 -0.33523,-0.335234 1.25348,-2.701384 3.53048,-5.25811 8.55923,-9.610723 7.85429,-9.182837 14.25694,-8.653766 5.11039,0.422288 6.14769,0.88763 8.59389,3.855291 2.00713,2.434996 3.34856,3.226872 4.81617,2.843084 3.15453,-0.824928 4.94015,-4.033283 3.96915,-7.131665 C 712.53921,58.69296 711.89457,56.2625 711.56362,54.75 710.96417,52.010397 710.98269,52 716.4619,52 c 5.08444,0 5.54914,0.1958 6.15041,2.591465 0.55862,2.225727 1.01999,2.492014 3.26905,1.886796 4.91955,-1.32384 9.29412,-0.916087 10.34649,0.964395 0.5488,0.98066 1.87831,2.663508 2.95447,3.739664 1.812,1.811995 1.84062,2.133728 0.38716,4.35198 C 738.70627,66.851733 738,68.813323 738,69.893388 c 0,2.304691 -1.39157,3.721822 -6.93033,7.05764 C 728.83135,78.299094 727,79.954451 727,80.6296 c 0,0.675149 -0.65225,1.879792 -1.44944,2.676984 -1.18912,1.18912 -1.22036,1.762729 -0.17395,3.193783 1.19629,1.636024 1.52006,1.589948 5.21412,-0.742007 2.16625,-1.367491 4.53916,-3.20994 5.27314,-4.09433 1.20584,-1.452956 1.68311,-1.462329 4.95027,-0.09722 1.98867,0.830921 3.85654,1.838051 4.15081,2.238068 0.29428,0.400017 1.99831,1.929148 3.78673,3.398069 2.51536,2.065981 3.98726,2.556265 6.5,2.165122 1.78658,-0.278104 6.02678,0.15246 9.42267,0.956809 6.03749,1.430035 6.25244,1.409394 9.69695,-0.931213 C 778.12782,86.841044 780,86.377492 780,88 c 0,0.55 0.62325,1 1.38499,1 2.26905,0 4.47407,4.416105 4.80504,9.623297 L 786.5,103.5 l 5.59684,-0.32246 c 3.15717,-0.1819 7.99491,0.37468 11.09825,1.27684 5.10659,1.48453 9.38268,1.28949 8.35034,-0.38087 -0.24369,-0.3943 0.17604,-1.91025 0.93273,-3.36878 0.7567,-1.458532 1.52117,-3.630309 1.69883,-4.826174 0.17765,-1.195866 1.09414,-2.657632 2.03664,-3.248369 1.37004,-0.85872 2.30556,-0.506954 4.66597,1.754463 2.97233,2.847673 9.56495,4.323111 10.74988,2.405842 0.79875,-1.292403 6.35848,0.12038 8.56557,2.176597 1.02434,0.954319 2.04899,2.703821 2.277,3.887781 0.60968,3.16579 1.21494,3.84036 4.46113,4.97199 2.34985,0.81916 3.69169,0.63897 6.71328,-0.90153 5.90553,-3.01081 8.67239,-2.2634 9.50852,2.56853 0.43209,2.49706 4.17356,4.55204 9.22615,5.06743 2.13463,0.21774 5.42285,1.30553 7.30716,2.4173 1.88432,1.11178 3.98788,2.02141 4.67459,2.02141 0.68671,0 2.77341,1.125 4.63712,2.5 4.27274,3.15233 9,3.39203 9,0.45636 0,-1.12401 1.09744,-3.22719 2.43876,-4.67375 l 2.43877,-2.63009 5.15352,2.67374 c 2.83444,1.47056 5.94225,2.67374 6.90625,2.67374 0.964,0 2.60891,0.94607 3.65535,2.10238 1.86454,2.06029 7.40735,5.40911 7.40735,4.47532 0,-0.26051 1.29516,-0.0222 2.87814,0.52966 2.24006,0.78089 3.00527,1.78678 3.45161,4.53721 0.31541,1.94364 1.06179,4.12228 1.65863,4.84143 1.14198,1.376 5.01162,0.91069 5.01162,-0.60263 0,-1.46705 3.74859,-0.99192 5.42857,0.68806 2.31081,2.3108 1.93214,4.58792 -1.36286,8.19548 l -2.93428,3.21263 -7.53043,-3.98977 C 928.45926,141.7954 924.39125,140 923.56097,140 c -0.83029,0 -2.17952,1.29547 -2.9983,2.87882 -0.81879,1.58335 -2.23239,3.1642 -3.14135,3.513 -1.36384,0.52335 -1.58077,1.76312 -1.24131,7.09422 l 0.41134,6.46005 -4.79567,1.7245 C 909.15805,162.61906 907,163.70741 907,164.08914 c 0,0.38172 -1.10176,0.97057 -2.44835,1.30854 -1.3466,0.33797 -3.04111,1.84926 -3.76558,3.35841 -1.15799,2.41219 -1.88186,2.74391 -5.98771,2.74391 -4.04586,0 -5.0751,0.45298 -7.696,3.38708 -2.67929,2.99946 -3.44083,3.31968 -6.65462,2.79815 -4.75678,-0.77192 -7.45453,0.89771 -6.89085,4.26473 1.97654,11.80643 0.61438,17.55913 -4.85957,20.52306 -1.75853,0.95218 -3.87232,3.14777 -4.69732,4.87911 -1.69495,3.55698 -4.11565,4.14863 -4.69643,1.14787 -0.90501,-4.67602 -0.47864,-11.58666 0.8131,-13.17884 0.92649,-1.14198 0.97052,-1.45707 0.13333,-0.9541 -0.6875,0.41304 -1.25,0.27442 -1.25,-0.30804 0,-1.1699 2.06507,-3.75655 6.25,-7.82858 1.5125,-1.47169 2.75,-3.34413 2.75,-4.16096 0,-0.81684 1.53891,-3.07913 3.41979,-5.02732 1.88089,-1.94819 3.56839,-4.44216 3.75,-5.54216 0.27586,-1.67082 -0.16356,-1.95882 -2.66979,-1.7498 -1.65,0.13761 -3.9761,-0.25645 -5.16911,-0.87569 -1.76576,-0.91653 -2.69554,-0.75068 -5,0.89187 -3.51442,2.50496 -6.31088,5.56026 -7.77123,8.49051 -1.23935,2.48682 -5.19686,3.21382 -6.34329,1.16527 -1.40873,-2.51728 -5.51099,-3.31128 -8.40604,-1.62701 -2.33221,1.35683 -3.23066,1.38625 -6.76031,0.22136 -3.02799,-0.99933 -4.64431,-1.06535 -6.31033,-0.25777 -1.23183,0.59712 -3.37622,1.32891 -4.76532,1.6262 -3.51599,0.75249 -13.02469,13.42169 -13.97536,18.62047 -0.76471,4.18189 -0.0463,5.48529 3.38255,6.13698 1.24035,0.23574 2.40069,1.9862 3.40493,5.13661 1.31866,4.13677 1.34383,5.73051 0.18735,11.85966 -0.73482,3.89437 -1.87118,7.61583 -2.52526,8.2699 -0.65408,0.65408 -1.885,2.51723 -2.73539,4.14034 -1.96051,3.74195 -9.60075,11.4511 -11.34876,11.4511 -0.72817,0 -3.13347,0.72403 -5.34511,1.60894 -3.43806,1.37565 -4.47579,2.56158 -7.15654,8.17859 -2.82344,5.91598 -3.01662,6.89812 -1.94157,9.87112 1.04917,2.90144 0.95085,3.5623 -0.8114,5.45386 l -2.00523,2.15236 -0.64643,-2.5756 c -0.35554,-1.41658 -0.35038,-3.05463 0.0115,-3.64011 C 781.19242,264.87964 778.77573,262 777.07143,262 c -1.07577,0 -1.35818,-0.92211 -1.33087,-4.34554 0.0117,-1.46113 -0.53259,-1.73621 -2.61292,-1.32065 -6.31921,1.26232 -6.61967,1.21545 -6.94671,-1.08381 -0.19136,-1.3454 -1.01729,-2.25 -2.05431,-2.25 -1.92302,0 -8.12662,5.92559 -8.12662,7.76242 0,1.56759 3.28845,3.23758 6.37524,3.23758 3.83513,0 4.06809,1.71052 0.69266,5.08595 -2.89535,2.89534 -3.03663,3.39676 -2.56934,9.11862 0.35114,4.29965 1.05418,6.54023 2.42532,7.72941 1.87355,1.62492 1.87803,1.79171 0.15102,5.62032 -2.73502,6.06329 -10.47905,14.10507 -14.31601,14.86646 -1.79239,0.35567 -5.05041,1.49378 -7.24003,2.52912 -2.18963,1.03534 -4.42258,1.60962 -4.96211,1.27618 -1.09886,-0.67914 -7.12321,-0.45048 -9.80675,0.37222 -2.89632,0.88793 -2.02573,10.8363 1.1728,13.40172 1.73081,1.38822 4.06086,6.20245 4.25872,8.79918 0.28517,3.74252 -2.47819,7.98619 -5.73219,8.80289 -2.08901,0.52431 -3.38252,-0.20732 -7.48588,-4.23412 -2.72828,-2.67737 -4.96117,-5.46034 -4.96198,-6.18437 -9.4e-4,-0.84384 -0.98038,-1.20283 -2.7283,-1 -2.95188,0.34254 -5.79359,4.46814 -4.32382,6.27736 0.46425,0.57148 1.41674,2.96803 2.11663,5.32567 0.69989,2.35763 2.25421,5.34585 3.45403,6.64048 3.30766,3.56902 6.79631,9.58992 6.01141,10.37482 -0.38319,0.38319 -1.9998,-0.87798 -3.59247,-2.8026 -1.59267,-1.92462 -3.73839,-4.39931 -4.76825,-5.49931 -3.63279,-3.88018 -4.39779,-6.60451 -5.76795,-20.54099 -0.77133,-7.84548 -2.74595,-11.38089 -5.52564,-9.89324 -2.0363,1.08979 -3.87711,0.5056 -3.87711,-1.23043 0,-0.57565 -1.08196,-2.33246 -2.40435,-3.90404 -1.32239,-1.57157 -2.58395,-3.39619 -2.80345,-4.05471 -0.21951,-0.65852 -3.30005,-1.55037 -6.84565,-1.9819 -6.29918,-0.76665 -6.51159,-0.71618 -9.29157,2.2078 -1.56477,1.64582 -4.58292,4.08947 -6.70701,5.43035 -3.87323,2.44507 -6.08449,5.3713 -6.65685,8.80922 -0.16867,1.01313 -0.97817,2.80075 -1.79889,3.9725 -0.82073,1.17175 -1.49223,2.73536 -1.49223,3.4747 0,2.11694 -6.79315,8.83814 -7.78032,7.69791 -0.47006,-0.54294 -1.4529,-3.46217 -2.1841,-6.48717 -0.73119,-3.025 -2.38832,-7.06696 -3.68251,-8.98213 C 642.05888,323.10269 641,320.29019 641,318.76787 641,317.24554 640.55857,316 640.01905,316 c -0.53952,0 -1.26429,-1.12892 -1.61059,-2.50871 -0.38159,-1.52038 -1.57096,-2.74496 -3.01905,-3.1084 C 634.05647,310.04834 633,309.04045 633,308.10335 c 0,-1.85977 -7.58014,-8.61721 -11.19509,-9.98005 -1.2677,-0.47793 -4.75373,-1.16428 -7.74674,-1.52522 -7.35703,-0.88724 -9.90642,-1.55548 -14.26833,-3.73998 C 597.74925,291.83615 594.90717,291 593.4741,291 c -4.11984,0 -6.46059,-1.80267 -8.49082,-6.539 -1.91663,-4.47132 -2.99167,-5.11682 -9.48328,-5.69418 -3.49177,-0.31056 -3.56605,1.11202 -0.4005,7.67101 1.04527,2.16581 1.9005,4.75331 1.9005,5.75 0,1.34686 0.77032,1.81217 3,1.81217 2.5098,0 3,0.39683 3,2.42857 0,4.90817 5.87979,7.53307 8,3.57143 1.22158,-2.28253 5,-2.72201 5,-0.58156 0,0.78014 1.575,2.39184 3.5,3.58156 1.925,1.18972 3.48782,2.68892 3.47294,3.33156 -0.0482,2.08032 -6.96538,8.70075 -11.27687,10.79304 -2.30784,1.11996 -4.87107,2.38056 -5.69607,2.80134 -0.825,0.42078 -3.975,1.31688 -7,1.99134 -3.025,0.67445 -6.43944,1.68092 -7.58764,2.23659 -1.14821,0.55567 -3.3822,0.86087 -4.96444,0.67822 -2.36051,-0.27249 -2.99874,-0.93316 -3.55636,-3.68138 -0.37377,-1.84211 -2.26219,-4.99211 -4.19649,-7 -1.93431,-2.00789 -4.22134,-5.22571 -5.08229,-7.15071 -0.86095,-1.925 -3.96455,-8 -6.89689,-13.5 -4.50933,-8.45786 -5.70603,-10 -7.76001,-10 -3.42649,0 -3.65021,2.90091 -0.53835,6.98076 1.67198,2.19208 2.58247,4.65571 2.58247,6.9877 0,1.98105 0.6964,4.66474 1.54755,5.96377 0.85115,1.29902 1.75585,3.51056 2.01044,4.91453 0.25459,1.40396 1.80819,4.02558 3.45245,5.82581 1.77283,1.941 2.98956,4.37187 2.98956,5.97274 0,2.19855 0.64958,2.91397 3.5,3.85469 1.925,0.63531 3.53651,1.68271 3.58112,2.32755 0.0446,0.64485 0.15712,2.97245 0.25,5.17245 0.16389,3.88184 0.26489,3.99073 3.41888,3.68603 1.7875,-0.17268 3.25,0.14898 3.25,0.71482 0,2.1845 3.69262,3.09868 6.64185,1.64431 1.57198,-0.7752 4.16515,-1.73121 5.76258,-2.12447 2.85301,-0.70237 2.89258,-0.65576 2.23495,2.63243 -0.36822,1.8411 -1.04731,3.59483 -1.50908,3.89717 -0.46177,0.30234 -1.46749,1.75949 -2.23494,3.23811 -1.54268,2.97224 -9.52151,12.30212 -17.70193,20.69939 -7.23007,7.42172 -8.41673,10.47407 -6.7265,17.30197 0.72299,2.92063 2.3762,8.1602 3.6738,11.64348 l 2.35927,6.33324 -4,3.40188 c -2.2,1.87104 -4.7875,3.40858 -5.75,3.41676 -0.9625,0.008 -1.75,0.46488 -1.75,1.01488 0,0.55 -0.62686,1 -1.39301,1 -2.01439,0 -2.64771,2.4238 -1.9546,7.48054 0.58667,4.28028 0.48229,4.50745 -3.02087,6.57436 -1.9957,1.17749 -3.38953,2.52763 -3.0974,3.0003 0.29212,0.47267 -1.2603,4.42239 -3.44983,8.77716 -5.55326,11.04487 -14.83724,17.93409 -22.21301,16.48323 -1.4458,-0.28439 -2.93485,-0.0217 -3.30902,0.58367 -0.98166,1.58835 -3.10792,1.35311 -4.65867,-0.51543 z m 88.07472,-190.34331 c 1.71268,-3.20017 0.10763,-12.84475 -2.62905,-15.79768 C 587.05717,244.84866 586,242.90022 586,241.91299 c 0,-0.98722 -0.45,-2.07307 -1,-2.41299 -2.50512,-1.54825 -0.8005,-2.72371 3.05564,-2.10709 l 4.05563,0.64852 -0.30563,-4.69086 c -0.26586,-4.08035 -0.71561,-4.9191 -3.45566,-6.44455 -2.89416,-1.61124 -3.67042,-1.63498 -9.55655,-0.29235 -5.20183,1.18654 -6.72496,2.00041 -8.09998,4.32813 -2.22196,3.76148 -2.1381,6.2395 0.30655,9.0582 1.1,1.26831 2,3.12151 2,4.11821 0,0.99671 1.31903,3.31449 2.93118,5.15063 2.51448,2.86383 2.85376,3.91565 2.38659,7.39866 -0.46411,3.46018 -0.19937,4.30202 1.79133,5.69636 3.34432,2.34246 9.54118,2.15811 10.86921,-0.32334 z M 610.14766,241.25 c 2.12449,-3.70031 3.06187,-10.2926 1.69733,-11.93677 C 611.24556,228.59095 609.4536,228 607.86286,228 c -2.18992,0 -3.37345,0.78921 -4.87382,3.25 -2.52766,4.14567 -2.49336,5.38544 0.26096,9.43129 2.74402,4.03072 4.8121,4.20123 6.89766,0.56871 z M 565,425.46482 c 0,-0.84435 -0.70698,-2.61418 -1.57107,-3.93295 -1.24167,-1.89502 -1.33164,-2.84513 -0.42913,-4.5315 0.62807,-1.17356 1.06446,-3.56623 0.96976,-5.31706 -0.28196,-5.21252 -0.15309,-5.39967 4.53044,-6.57899 3.67392,-0.92511 4.5,-1.54856 4.5,-3.39621 0,-3.72292 2.82013,-6.86549 5.84669,-6.5152 2.3458,0.2715 2.62235,0.69512 2.3862,3.65518 -0.14691,1.84145 -1.47942,5.89145 -2.96115,9 -1.48172,3.10855 -2.79892,6.32691 -2.92712,7.15191 -1.03245,6.64424 -2.71881,9.93479 -5.60751,10.9418 C 565.69422,427.35116 565,427.28126 565,425.46482 z m 269.57503,-33.52425 c -1.05873,-1.06731 -2.63373,-1.98224 -3.5,-2.03318 -0.86626,-0.0509 -3.60003,-0.21438 -6.07503,-0.36321 -7.60884,-0.45756 -12.25184,-2.35504 -18.48195,-7.55314 -5.34852,-4.46254 -7.30824,-5.49065 -9.75047,-5.11532 -0.40283,0.0619 -1.01411,-1.0098 -1.35841,-2.38158 C 795.06488,373.12236 794.38197,372 793.89159,372 793.40122,372 793,371.325 793,370.5 c 0,-2.50881 4.26201,-1.70403 6.6199,1.25 2.0583,2.57871 2.40061,2.67266 5.49576,1.50828 2.97184,-1.11799 3.65365,-1.00261 6.84254,1.15794 1.94799,1.31982 5.5019,2.71369 7.89757,3.09749 4.16848,0.66782 6.46804,2.21521 8.64423,5.81677 0.55,0.91024 2.125,1.81043 3.5,2.00042 1.57629,0.2178 3.01923,1.42132 3.90529,3.25727 0.77291,1.60151 1.78541,3.06183 2.25,3.24516 0.46459,0.18334 0.84471,0.74584 0.84471,1.25 0,1.53049 -2.38392,0.91483 -4.42497,-1.14276 z M 774,391.96862 C 774,391.43588 774.675,391 775.5,391 c 1.92067,0 1.92067,0.6246 0,1.36163 -0.825,0.31658 -1.5,0.13972 -1.5,-0.39301 z m -39.91282,-4.36803 c -5.1133,-1.56007 -6.87162,-2.46933 -5.66821,-2.93112 3.09815,-1.18887 9.68781,-0.71264 13.1999,0.95396 2.72739,1.29423 3.18947,1.90258 2.27869,3 -1.3866,1.67076 -0.7717,1.73487 -9.81038,-1.02284 z M 761.5,381 c -0.33992,-0.55 -0.36906,-1.40285 -0.0648,-1.89522 0.3043,-0.49236 -0.11914,-1.15324 -0.94098,-1.46861 C 758.54084,376.88657 758.54566,373 760.5,373 c 0.92157,0 1.5,-0.93651 1.5,-2.42857 0,-2.36828 2.29374,-5.57143 3.98964,-5.57143 1.85021,0 3.96915,1.25767 3.47259,2.06111 -0.28945,0.46835 -1.18308,0.59951 -1.98583,0.29146 -2.13646,-0.81984 -2.94162,2.32507 -1.07353,4.19316 2.32509,2.32509 2.07989,7.16627 -0.40287,7.95427 -1.1,0.34913 -2,1.05445 -2,1.56739 0,1.24003 -1.72064,1.19365 -2.5,-0.0674 z m -42.46483,-4.45762 c -0.70403,-0.84831 -2.01246,-1.55669 -2.90761,-1.57418 -2.39297,-0.0468 -4.7342,-2.13264 -5.58071,-4.97204 -0.40929,-1.37289 -3.06228,-4.58737 -5.89551,-7.14328 -2.83324,-2.55592 -4.84782,-4.95945 -4.47684,-5.34117 0.69904,-0.71929 12.89789,5.60357 16.20509,8.39935 2.50014,2.11353 5.93482,10.17453 4.81316,11.29619 -0.50335,0.50335 -1.42332,0.21986 -2.15758,-0.66487 z M 740.75,372.27662 c -4.899,-1.43656 -5.17385,-1.90738 -4.13773,-7.08796 0.47469,-2.37346 1.47453,-3.40635 4.44971,-4.59678 2.1106,-0.8445 4.27024,-2.33564 4.79921,-3.31366 0.52896,-0.97802 2.325,-2.57545 3.99118,-3.54984 2.94671,-1.72326 3.08275,-1.71439 4.98246,0.3247 2.88498,3.09667 2.11728,11.83208 -1.451,16.51034 -2.08334,2.7314 -2.93394,3.22492 -4.0137,2.3288 -0.89097,-0.73944 -1.80728,-0.80236 -2.62013,-0.17992 -0.81373,0.62312 -2.90783,0.47106 -6,-0.43568 z M 781,366 c 0,-0.55 0.45,-1 1,-1 0.55,0 1,0.45 1,1 0,0.55 -0.45,1 -1,1 -0.55,0 -1,-0.45 -1,-1 z m -8,-15.94648 c -3.03011,-0.78018 -3.31465,-3.43713 -0.41249,-3.85178 2.36142,-0.33739 5.23212,2.43497 3.82011,3.68925 -0.49919,0.44342 -2.03262,0.51656 -3.40762,0.16253 z M 656.01531,345.75 c 0.008,-0.6875 0.40217,-1.86054 0.875,-2.60676 1.09866,-1.73391 2.54579,0.27792 1.72969,2.40465 -0.68199,1.77722 -2.62583,1.92805 -2.60469,0.20211 z m 107.89308,-17 c -0.8524,-2.3261 -0.7314,-6.74135 0.20053,-7.31731 0.75981,-0.4696 0.93832,-0.31815 0.48657,0.4128 -0.39244,0.63498 -0.3092,1.15451 0.18498,1.15451 0.7707,0 3.21953,4.21918 3.21953,5.54705 0,0.46249 -3.92516,0.65718 -4.09161,0.20295 z M 342.66813,317.57754 c -0.33295,-0.86765 -0.35078,-2.24098 -0.0396,-3.05184 0.49324,-1.28535 0.76385,-1.27619 2.11147,0.0714 1.37677,1.37677 1.38111,1.71036 0.0396,3.05184 -1.34148,1.34148 -1.57228,1.33368 -2.11147,-0.0714 z M 733.5,316 c 0.33992,-0.55 1.26648,-1 2.05902,-1 0.79254,0 1.44098,0.45 1.44098,1 0,0.55 -0.92656,1 -2.05902,1 -1.13246,0 -1.7809,-0.45 -1.44098,-1 z m -445,-6 c -0.33992,-0.55 0.0835,-1 0.94098,-1 0.85746,0 1.55902,0.45 1.55902,1 0,0.55 -0.42344,1 -0.94098,1 -0.51754,0 -1.2191,-0.45 -1.55902,-1 z M 273,308.16898 c 0,-1.48598 4.81599,-3.45375 6.68254,-2.73044 1.73346,0.67175 1.72774,0.77033 -0.12367,2.13288 C 277.46005,309.11605 273,309.5224 273,308.16898 z M 763,306.5 c 0,-0.825 0.45,-1.5 1,-1.5 0.55,0 1,0.675 1,1.5 0,0.825 -0.45,1.5 -1,1.5 -0.55,0 -1,-0.675 -1,-1.5 z m -502,-2.50789 c 0,-1.20374 -1.0684,-1.9038 -3.51022,-2.30005 -1.93061,-0.3133 -4.25893,-1.31835 -5.17403,-2.23345 -1.16404,-1.16404 -2.66286,-1.50169 -4.98978,-1.12408 -1.82928,0.29685 -3.32597,0.11802 -3.32597,-0.3974 0,-0.51542 0.3375,-0.97156 0.75,-1.01364 0.4125,-0.0421 1.65,-0.31151 2.75,-0.59873 5.34691,-1.39613 9.24911,-1.43317 10.5889,-0.10052 0.7761,0.77197 3.7736,2.25122 6.6611,3.28722 2.8875,1.036 5.25,2.39392 5.25,3.01761 0,0.62369 -2.025,1.59736 -4.5,2.16372 -3.99638,0.9145 -4.5,0.83609 -4.5,-0.70068 z m 543.34075,-30.5465 C 804.03565,272.65052 802.96073,272 801.95203,272 c -2.24814,0 -3.08152,-1.17244 -2.03594,-2.86423 0.7097,-1.14831 2.65149,-1.85006 5.69817,-2.05926 0.61284,-0.0421 3.39926,-2.32575 6.19203,-5.07482 2.92092,-2.87521 5.35134,-4.55565 5.72183,-3.95619 0.35423,0.57316 0.10022,1.6974 -0.56447,2.4983 -0.6647,0.80091 -0.87668,1.4562 -0.47108,1.4562 0.4056,0 0.0107,1.10917 -0.87756,2.46482 -0.88826,1.35565 -1.6219,3.49315 -1.63032,4.75 -0.0228,3.39737 -1.07946,4.41194 -5.28695,5.07615 -2.80756,0.44322 -3.94737,0.22207 -4.35699,-0.84536 z M 488.63837,257.5 c -0.31658,-0.825 -0.41982,-1.5 -0.22943,-1.5 0.19039,0 0.90637,0.675 1.59106,1.5 0.71755,0.86459 0.81474,1.5 0.22943,1.5 -0.5585,0 -1.27447,-0.675 -1.59106,-1.5 z M 475,251.5 c 0,-0.825 0.17686,-1.5 0.39301,-1.5 0.21616,0 0.65203,0.675 0.96862,1.5 0.31658,0.825 0.13972,1.5 -0.39301,1.5 C 475.43588,253 475,252.325 475,251.5 z m 343.70843,-5.19733 c -1.31834,-0.34242 -1.61571,-1.03818 -1.12578,-2.634 0.36619,-1.19277 0.72545,-2.24672 0.79836,-2.34211 0.0729,-0.0954 1.67085,0.14117 3.551,0.5257 3.48121,0.71198 5.53283,3.14774 2.65132,3.14774 -0.87083,0 -1.58333,0.45 -1.58333,1 0,1.02972 -1.17364,1.1125 -4.29157,0.30267 z m 4.15488,-12.96751 C 821.88088,232.15131 821.5,228.37245 821.5,219.80934 c 0,-16.81008 1.176,-19.09681 2.98757,-5.80934 0.33743,2.475 1.27092,5.50453 2.07441,6.73228 1.30785,1.99841 1.25493,2.61658 -0.50516,5.90053 -1.41567,2.64132 -1.69806,4.16902 -1.00874,5.45703 1.2745,2.38142 -0.43388,3.35519 -2.18477,1.24532 z M 312.61405,220.43662 c -0.32996,-0.85986 -1.00211,-1.31482 -1.49368,-1.01101 -0.49157,0.3038 -1.37626,-0.029 -1.96599,-0.73959 -0.78448,-0.94525 -0.55047,-2.14994 0.87199,-4.48899 C 311.0957,212.43866 312.4233,211 312.9766,211 c 1.64719,0 7.0234,6.15541 7.0234,8.04133 0,3.01409 -6.30751,4.20566 -7.38595,1.39529 z M 443.59077,210 c 0.39166,-1.925 0.77078,-4.46059 0.84249,-5.63464 0.0717,-1.17405 0.62673,-2.74905 1.23339,-3.5 1.21408,-1.50283 0.0575,-5.86536 -1.55497,-5.86536 -0.52402,0 -1.24869,-1.34732 -1.61037,-2.99404 -0.36168,-1.64673 -1.32355,-3.36673 -2.13748,-3.82222 -1.49601,-0.83721 -1.51188,-4.56932 -0.0295,-6.93374 1.07497,-1.71459 5.32564,-1.57845 6.00516,0.19234 0.30441,0.79328 0.30789,2.95567 0.008,4.80532 -0.42836,2.63963 -6.2e-4,4.01082 1.98857,6.37485 1.39388,1.65652 2.83269,4.20067 3.19737,5.65366 0.36467,1.45298 1.2939,3.16535 2.06493,3.80526 1.73934,1.44352 1.82802,5.33548 0.15189,6.66574 -0.6875,0.54562 -3.04897,1.31703 -5.24771,1.71422 -2.19874,0.3972 -4.36354,1.24337 -4.81067,1.88039 -0.44739,0.63702 -0.49277,-0.41678 -0.1011,-2.34178 z m -13.05731,-7.17468 c 0.68242,-3.12803 4.78039,-9.17813 5.6367,-8.32182 0.21593,0.21593 0.21742,2.22953 0.003,4.47467 -0.31752,3.32954 -0.94014,4.36693 -3.37738,5.62727 l -2.98809,1.54521 0.72546,-3.32533 z M 131,195.44098 c 0,-0.85746 0.45,-1.2809 1,-0.94098 0.55,0.33992 1,1.04148 1,1.55902 0,0.51754 -0.45,0.94098 -1,0.94098 -0.55,0 -1,-0.70156 -1,-1.55902 z M 125.5,186 c -0.33992,-0.55 -0.14148,-1 0.44098,-1 0.58246,0 1.05902,0.45 1.05902,1 0,0.55 -0.19844,1 -0.44098,1 -0.24254,0 -0.7191,-0.45 -1.05902,-1 z m 213.75616,-20.95708 c -5.73122,-1.39189 -5.35221,-0.6657 -12.0265,-23.04292 -0.90224,-3.025 -1.99802,-5.9275 -2.43505,-6.45 -1.91992,-2.29538 -0.78124,-9.46954 2.20539,-13.89489 3.72519,-5.51968 3.74134,-6.85353 0.1199,-9.90077 -3.25613,-2.73985 -4.75061,-6.24651 -3.09756,-7.26814 0.60703,-0.37517 1.97809,0.1092 3.0468,1.07637 1.06872,0.96718 2.21938,1.48224 2.55703,1.14459 C 330.75954,105.57379 328.94977,99 327.50438,99 c -0.77275,0 -1.83381,-0.766243 -2.35791,-1.702762 -0.79157,-1.41445 -1.21587,-1.484533 -2.50589,-0.41391 C 320.17464,98.929881 319,97.279975 319,91.769724 c 0,-3.463673 -0.56381,-5.735244 -1.74838,-7.044181 -1.11277,-1.229598 -1.77312,-3.638874 -1.81645,-6.627236 -0.0374,-2.582413 -0.41608,-5.258394 -0.84142,-5.946624 -0.42535,-0.688229 -1.29545,-3.343713 -1.93356,-5.901075 -0.87284,-3.498105 -1.92503,-5.095047 -4.24822,-6.447634 -3.25138,-1.892992 -10.70791,-2.497251 -16.08355,-1.303373 -2.83819,0.630337 -3.3375,0.38353 -4.75,-2.347951 C 286.71029,54.472868 286,52.851973 286,52.54966 286,52.247347 312.49375,52 344.875,52 l 58.875,0 0.78152,3.25 c 1.20642,5.016982 0.71209,8.057643 -1.59257,9.796051 -2.32587,1.754405 -2.48082,7.662324 -0.18895,7.203949 1.85223,-0.370445 1.5163,1.199027 -0.68256,3.188968 -1.06291,0.961919 -1.68976,2.381664 -1.39301,3.154988 0.61408,1.600283 0.75295,1.56862 -9.81744,2.238538 -3.72282,0.235941 -4.51079,2.968435 -1.21712,4.220683 2.22143,0.844588 2.51517,1.42163 2.00984,3.948292 -0.4771,2.385506 -0.16128,3.181033 1.62923,4.103798 C 397.40036,95.22931 400,98.30895 400,101.06733 c 0,3.19016 -2.44133,4.52906 -4.24256,2.32675 -2.85422,-3.489763 -4.80047,-5.393717 -5.50744,-5.387757 -0.4125,0.0035 -1.54299,1.399514 -2.5122,3.102307 -1.08817,1.91178 -2.30332,2.88834 -3.17689,2.55312 -1.55205,-0.59558 -3.94174,1.62408 -2.88557,2.68026 0.3619,0.36189 1.91716,0.65799 3.45614,0.65799 1.7747,0 3.18965,0.73152 3.86852,2 0.70088,1.3096 2.09382,2 4.03518,2 2.2337,0 2.96482,0.463 2.96482,1.87756 0,2.58778 -1.79211,3.84328 -7.22334,5.06044 -2.91767,0.65386 -6.05941,2.34238 -8.45911,4.54632 -2.09965,1.92837 -4.71755,3.51068 -5.81755,3.51626 -1.70143,0.009 -5.6383,4.44586 -10.2875,11.59505 -0.39188,0.60259 -2.04972,1.72759 -3.68409,2.5 -2.04783,0.9678 -3.47368,2.76363 -4.58673,5.77691 -0.88833,2.4049 -2.6566,5.15812 -3.92949,6.11827 -1.56023,1.17688 -2.14148,2.40678 -1.78382,3.77448 0.72777,2.78298 -3.28961,9.6934 -5.7554,9.90007 -1.08513,0.091 -3.4327,-0.18914 -5.21681,-0.62244 z m -49.12292,-9.38034 c -1.00786,-1.21591 -2.32177,-1.49616 -5.00374,-1.0673 -3.52167,0.56314 -3.76414,0.39646 -7.64726,-5.25685 -3.79499,-5.525 -4.24609,-5.84886 -8.40282,-6.03274 -9.30658,-0.41168 -7.56781,-8.56579 2.02176,-9.48123 3.28933,-0.31401 3.39988,-0.46478 3.43164,-4.68034 0.018,-2.39573 -0.50505,-5.09146 -1.16244,-5.9905 -1.07273,-1.46705 -1.46466,-1.34393 -3.82324,1.20102 -2.42855,2.62045 -2.79565,2.72449 -4.83756,1.37101 -4.49695,-2.98079 -2.36905,-5.7522 4.70271,-6.12487 3.25007,-0.17128 2.7924,-2.12499 -0.80229,-3.42484 -1.88058,-0.68003 -3.67012,-1.89022 -3.97676,-2.68932 -0.31444,-0.81942 -1.22805,-1.1956 -2.09539,-0.86277 -0.99836,0.38311 -1.53785,0.0151 -1.53785,-1.04909 0,-1.77867 -3.72261,-3.60776 -5.76273,-2.83148 -0.69451,0.26426 -1.91041,-0.0571 -2.70202,-0.71402 -0.79178,-0.65712 -2.38162,-0.89541 -3.53395,-0.52967 -1.54155,0.48927 -3.33664,-0.33816 -6.79799,-3.13348 -2.58682,-2.08906 -5.06619,-4.26355 -5.50971,-4.832201 C 236.25008,98.965259 236.11775,95.35 236.39954,91.5 c 0.44247,-6.045319 0.8843,-7.321816 3.23964,-9.359649 2.61737,-2.264538 2.78153,-2.285476 4.07288,-0.519457 0.80429,1.099939 1.10089,2.95426 0.7373,4.609649 -0.81891,3.728478 1.80944,3.738661 5.02185,0.01946 l 2.37527,-2.75 1.04257,2.5 c 2.11903,5.081229 3.72747,6.246642 8.0521,5.834222 C 263.17352,91.621331 265,91.710001 265,92.031266 c 0,0.321265 2.28246,0.584119 5.07213,0.584119 5.98274,0 7.20559,1.277542 6.35059,6.634615 -0.54816,3.43451 -0.40183,3.75007 1.73938,3.75089 3.42284,0.001 9.8379,6.95615 9.8379,10.6657 0,1.61337 -0.47089,3.4043 -1.04642,3.97983 -0.72855,0.72855 0.287,1.55565 3.34325,2.72284 2.42101,0.92459 4.95829,2.73892 5.65758,4.04556 0.69736,1.30303 3.0177,3.05647 5.15631,3.89654 2.73922,1.07599 3.71799,1.97144 3.31183,3.02988 -0.31711,0.82636 -0.0607,2.46641 0.56984,3.64454 1.80587,3.3743 -0.39062,5.20228 -5.84779,4.86669 -5.3071,-0.32635 -5.95346,0.66662 -4.09652,6.29322 1.02631,3.10974 1.03753,4.16514 0.0546,5.13434 -0.97525,0.9616 -1.51112,0.84934 -2.53021,-0.53003 C 291.20891,148.90444 288,148.3383 288,149.9433 c 0,0.51881 0.94097,1.60238 2.09106,2.40792 1.15008,0.80555 1.93758,2.25115 1.75,3.21243 -0.31555,1.61705 -0.4433,1.62445 -1.70782,0.0989 z m -45.86596,-5.8875 c -3.83763,-2.7008 -4.03189,-4.30718 -0.98179,-8.11871 l 2.27556,-2.84363 4.71948,2.29289 c 3.59404,1.74612 4.71947,2.84155 4.71947,4.59364 0,1.66699 -0.57562,2.30073 -2.08971,2.30073 -1.14934,0 -2.83684,0.91129 -3.75,2.02508 l -1.66029,2.02508 -3.23272,-2.27508 z M 407.5,148.76513 c -1.1,-0.64574 -3.8,-1.41955 -6,-1.7196 -3.91412,-0.53382 -4.00674,-0.6397 -4.31414,-4.93139 -0.3925,-5.48 0.53364,-6.45648 4.73465,-4.992 2.44076,0.85085 3.47482,0.85624 3.99114,0.0208 0.38328,-0.62016 2.69745,-1.40093 5.14261,-1.73504 3.86207,-0.52773 4.81339,-0.26631 7.24606,1.99118 3.28206,3.04572 2.98706,3.88881 -3.14493,8.98802 -4.83367,4.01956 -4.85024,4.02471 -7.65539,2.37801 z M 578.57484,119.1211 c -0.30984,-0.50134 0.10906,-1.16956 0.9309,-1.48493 0.82184,-0.31537 1.49426,-0.16408 1.49426,0.3362 0,1.35555 -1.7771,2.19731 -2.42516,1.14873 z M 178.25,114.53786 c -6.49933,-3.00166 -6.72405,-4.92926 -0.75,-6.43354 2.9529,-0.74355 4.5,-1.6755 4.5,-2.71073 0,-1.30502 -1.07993,-1.51852 -6.25,-1.2356 L 169.5,104.5 169.83706,99 c 0.46423,-7.575151 1.99574,-9.583953 8.34493,-10.94561 4.75274,-1.019279 5.401,-0.944367 6.78635,0.78422 0.84241,1.051132 2.76916,2.201027 4.28166,2.555322 1.5125,0.354294 2.76733,1.198099 2.78852,1.87512 0.0212,0.677021 1.48369,2.138031 3.25,3.246688 1.76631,1.108656 3.34412,2.936032 3.50624,4.06083 0.16212,1.12481 1.62205,2.82915 3.24429,3.78743 3.41403,2.01672 4.56146,5.3686 3.19836,9.34309 -0.76532,2.23147 -1.43827,2.70299 -3.34764,2.34558 -3.54906,-0.66434 -11.96858,-0.53618 -15.38977,0.23426 -2.15188,0.4846 -4.48421,-0.01 -8.25,-1.74907 z M 213.5,116 c -0.88695,-1.43512 0.33454,-3.00533 2.30902,-2.9682 2.11778,0.0398 5.38347,2.44238 4.50877,3.31708 -1.0224,1.0224 -6.13189,0.76094 -6.81779,-0.34888 z m 380.95,-9.92305 c -0.5225,-0.50768 -2.29172,-1.07018 -3.93159,-1.25 -3.92671,-0.43059 -5.75983,-4.79771 -3.2008,-7.625409 0.92531,-1.022462 1.6967,-2.723589 1.71419,-3.780282 0.0175,-1.056692 0.65123,-2.73834 1.40831,-3.736995 1.16491,-1.53662 1.68727,-1.621664 3.39808,-0.553242 1.53272,0.957198 1.79334,1.688958 1.07774,3.026063 -0.60119,1.12334 -0.56434,3.32085 0.10152,6.053242 1.88872,7.750523 2.03084,8.789673 1.20211,8.789673 -0.45076,0 -1.24706,-0.41537 -1.76956,-0.92305 z m 324.34887,-2.20327 c -1.26438,-1.11433 -1.7748,-1.76397 -1.13428,-1.44364 0.64052,0.32033 1.31552,0.1411 1.5,-0.39829 0.47646,-1.39312 4.83541,-0.0609 4.83541,1.47789 0,2.25348 -2.83234,2.45171 -5.20113,0.36404 z M 154.43373,98.208391 c -2.30384,-1.554811 -4.12338,-5.381077 -3.6748,-7.727657 C 151.01975,89.11633 151.57821,88 151.99995,88 c 1.13723,0 2.20458,-4.055186 2.02068,-7.67717 -0.25239,-4.970939 2.99535,-5.875029 13.57275,-3.778308 2.49604,0.494781 7.40662,5.175654 7.40662,7.06015 0,0.732569 -2.00252,2.808706 -4.45004,4.613636 -2.44752,1.804931 -4.88431,4.476741 -5.41509,5.937357 -0.53079,1.460615 -1.79077,2.88129 -2.79996,3.157054 -4.75974,1.300605 -6.93568,1.547268 -7.90118,0.895672 z m 57.23294,-0.875058 c -0.36667,-0.366666 -0.66952,-1.379166 -0.67299,-2.25 -0.003,-0.870833 -1.46598,-2.421176 -3.25,-3.445207 L 204.5,89.776252 l 2.25,-1.510098 c 1.30657,-0.876909 2.25,-2.53378 2.25,-3.951485 0,-2.151996 0.38524,-2.404242 3.25,-2.128027 2.78994,0.269 3.2942,0.738028 3.56222,3.313358 0.17172,1.65 1.04325,3.561056 1.93674,4.246792 1.49787,1.149591 1.49429,1.519905 -0.046,4.75 -1.56039,3.272169 -4.309,4.563791 -6.03625,2.836541 z M 222.38116,88.25 c -0.36131,-1.5125 -0.99306,-3.2 -1.40388,-3.75 -1.02081,-1.366639 0.62811,-5.411344 2.4987,-6.129155 0.83821,-0.321652 2.31152,-0.244073 3.27402,0.172398 0.9625,0.416471 2.65,0.919853 3.75,1.118627 1.1,0.198773 2.52757,0.553641 3.17238,0.788596 1.8559,0.676255 0.37241,4.29299 -2.52683,6.160378 -1.45505,0.937191 -3.00541,2.308147 -3.44524,3.04657 -1.43311,2.406028 -4.6089,1.565734 -5.31915,-1.407414 z m 37.97388,-2.464248 c -2.05728,-1.461545 -3.0723,-2.991017 -2.98591,-4.499294 0.16106,-2.812089 0.65904,-2.838743 3.99601,-0.213878 1.44917,1.139919 2.63486,1.759819 2.63486,1.377555 0,-0.382263 0.66554,-0.142672 1.47899,0.532425 1.09811,0.911352 1.21781,1.715459 0.46481,3.122445 -1.28824,2.407099 -1.7916,2.378346 -5.58876,-0.319253 z M 817.47293,83.956195 C 816.58897,82.525924 818.85078,80 821.01546,80 c 1.86766,0 3.38128,2.549047 2.42877,4.090242 -0.77161,1.248495 -5.17798,1.149578 -5.9713,-0.134047 z M 594,81.58207 c 0,-0.80522 0.38928,-1.704623 0.86506,-1.998673 0.47578,-0.29405 1.11026,-2.362753 1.40995,-4.597116 0.65941,-4.916199 3.14824,-8.985307 5.49804,-8.988983 0.97113,-0.0015 2.60268,-1.642756 3.72787,-3.75 1.94484,-3.642258 2.16489,-3.751113 7.85031,-3.8834 4.23084,-0.09844 6.64054,-0.721026 8.70858,-2.25 3.3727,-2.493542 4.52607,-2.635471 5.2877,-0.650686 0.60863,1.586075 -3.10517,5.00771 -6.65987,6.135929 -1.1811,0.374864 -3.32546,1.942637 -4.76525,3.48394 -1.43979,1.541303 -3.92384,3.119551 -5.5201,3.507218 C 607.8465,69.210998 599,77.375215 599,79.113194 c 0,0.361232 -1.125,1.393914 -2.5,2.294849 -2.11568,1.386248 -2.5,1.413001 -2.5,0.174027 z M 239.5,73.542901 c -1.65,-0.731055 -4.21279,-1.806369 -5.69509,-2.389587 -2.38786,-0.939519 -2.77387,-1.756787 -3.38625,-7.169469 -0.66906,-5.913738 -0.81223,-6.157516 -4.47774,-7.62416 -4.77771,-1.911662 -6.00581,-4.372877 -2.15954,-4.327882 1.49524,0.01749 3.59213,0.692492 4.65975,1.5 1.06762,0.807509 2.75512,1.468197 3.75,1.468197 0.99488,0 1.82318,0.5625 1.84067,1.25 0.0772,3.034438 2.84279,4.690019 9.54407,5.713433 3.80827,0.581597 9.06163,1.547634 11.67413,2.146749 4.35119,0.997841 4.75,1.337762 4.75,4.048576 0,1.978073 -0.38187,2.723268 -1.1517,2.247484 -0.63344,-0.391486 -1.72156,0.06753 -2.41805,1.020029 -1.01024,1.381589 -1.67855,1.511209 -3.30466,0.640941 -1.61294,-0.863216 -2.72571,-0.671794 -5.33196,0.917216 -3.80061,2.317196 -4.2551,2.3478 -8.29363,0.558473 z m -59.97426,-2.828403 0.65457,-3.489147 -4.59016,0.517377 C 171.33588,68.222246 171,68.094434 171,65.996072 c 0,-1.245218 0.52123,-4.003742 1.15829,-6.130052 1.31356,-4.38429 3.49191,-5.015013 6.3631,-1.842386 1.35547,1.497782 2.02952,1.703006 2.59394,0.789764 0.57412,-0.928945 1.26945,-0.775148 2.81366,0.622336 2.02305,1.830838 2.0719,1.806378 3.57447,-1.789763 C 188.34132,55.640687 189.20135,54 189.41464,54 c 0.2133,0 1.31708,1.575 2.45286,3.5 1.30008,2.203469 2.83004,3.5 4.13016,3.5 2.85503,0 3.44369,2.245837 1.54901,5.909743 -1.73778,3.360494 -3.28075,3.946803 -4.18504,1.590257 -0.57526,-1.499102 -3.46708,-2.167842 -3.24321,-0.75 0.57379,3.633969 -0.19332,4.499529 -3.51064,3.961203 -2.19798,-0.356683 -4.15696,-0.01485 -5.56442,0.970979 -2.12958,1.491616 -2.15935,1.453016 -1.51762,-1.967684 z m 630.62719,1.40967 -3.34707,-1.77592 3.34707,-3.507902 c 2.75254,-2.884808 4.08359,-3.515213 7.49354,-3.549058 3.45045,-0.03425 4.33384,0.370076 5.2627,2.408715 1.4792,3.24648 0.65936,4.299997 -3.34621,4.299997 -2.15497,0 -3.8002,0.683922 -4.69099,1.950044 -1.32999,1.890369 -1.4744,1.895697 -4.71904,0.174124 z M 222.20665,71.432189 c -1.19498,-0.836996 -2.54626,-2.963457 -3.00284,-4.72547 C 218.11534,62.506188 215,61.722262 215,65.648898 l 0,2.795546 -2.14818,-2.148182 c -1.9598,-1.959799 -2.3464,-2.018308 -4.40846,-0.667193 -2.15013,1.408819 -2.2921,1.336121 -2.91322,-1.491821 -0.35911,-1.635047 -1.52531,-3.978664 -2.59154,-5.208039 -2.58732,-2.983203 -2.46472,-4.333663 0.3114,-3.430362 2.84479,0.925643 5.64333,0.930499 8.44397,0.01465 1.85327,-0.606045 2.42768,-0.158114 3.69897,2.884522 C 216.2207,60.379109 217.56138,62 218.37225,62 c 2.79114,0 7.69041,5.042985 7.35228,7.56795 -0.44132,3.295422 -1.02954,3.60714 -3.51788,1.864239 z M 833.5,71 c -0.33992,-0.55 0.28197,-1 1.38197,-1 1.1,0 2.27811,0.45 2.61803,1 0.33992,0.55 -0.28197,1 -1.38197,1 -1.1,0 -2.27811,-0.45 -2.61803,-1 z M 256.11574,56.443936 c -2.57424,-2.16608 -3.36811,-2.379241 -5.20322,-1.397119 -1.57864,0.844864 -2.80874,0.865868 -4.53901,0.0775 -4.9305,-2.246487 -2.51539,-3.200914 7.36491,-2.910532 8.05915,0.236858 9.79213,0.567047 10.04994,1.914834 C 264.1018,55.767178 261.59122,59 260.0053,59 c -0.46852,0 -2.21882,-1.150229 -3.88956,-2.556064 z m -94.91805,0.353755 C 160.53896,56.138961 160,54.79 160,53.8 c 0,-1.47619 0.83951,-1.8 4.66667,-1.8 2.56666,0 4.47692,0.1125 4.245,0.25 -0.23191,0.1375 -1.79295,1.486461 -3.46897,2.997691 -2.36687,2.13415 -3.31475,2.480255 -4.24501,1.55 z"
     id="path2987"
     style="fill:#333333" />
</svg>
